<svg xmlns="http://www.w3.org/2000/svg" width="13.146" height="14" viewBox="0 0 13.146 14">
  <path id="edit-svgrepo-com" d="M10.669,3.5a2.235,2.235,0,0,1,1.7-.209,2.286,2.286,0,0,1,.674.33c.194.131.416.3.674.506l.038.029c.258.2.48.375.654.531a2.288,2.288,0,0,1,.484.573,2.235,2.235,0,0,1,.209,1.7,2.286,2.286,0,0,1-.33.674c-.131.194-.3.416-.506.674L8.972,15.081l-.04.051a4.986,4.986,0,0,1-.669.757,2.979,2.979,0,0,1-.648.42,4.99,4.99,0,0,1-.964.3l-.062.015-1.583.391c-.11.027-.235.058-.345.075a1.131,1.131,0,0,1-.524-.031,1.118,1.118,0,0,1-.609-.475,1.131,1.131,0,0,1-.158-.5c-.01-.111-.011-.24-.011-.353V15.71L3.355,14.1v-.064a4.987,4.987,0,0,1,.058-1.008,2.979,2.979,0,0,1,.25-.73,4.986,4.986,0,0,1,.572-.833l.04-.051L9.565,4.635c.2-.258.375-.48.531-.654A2.286,2.286,0,0,1,10.669,3.5Zm1.3,1.227a.745.745,0,0,0-.566.07.864.864,0,0,0-.2.182c-.118.132-.26.313-.48.595L13.074,7.4c.22-.282.361-.464.461-.61a.862.862,0,0,0,.129-.237.745.745,0,0,0-.07-.566.865.865,0,0,0-.182-.2c-.132-.118-.313-.26-.6-.48s-.464-.361-.61-.461A.864.864,0,0,0,11.97,4.724Zm.188,3.855L9.808,6.745l-4.36,5.585A4.2,4.2,0,0,0,5,12.958a1.49,1.49,0,0,0-.125.365,4.207,4.207,0,0,0-.028.772l0,1.425,1.383-.341a4.2,4.2,0,0,0,.742-.215,1.487,1.487,0,0,0,.324-.21,4.206,4.206,0,0,0,.5-.59ZM9.795,16.462a.745.745,0,0,1,.745-.745h5.215a.745.745,0,1,1,0,1.49H10.54A.745.745,0,0,1,9.795,16.462Z" transform="translate(-3.354 -3.207)" fill="#fff" fill-rule="evenodd"/>
</svg>
