<svg id="group-svgrepo-com" xmlns="http://www.w3.org/2000/svg" width="62" height="62" viewBox="0 0 62 62">
  <path id="Path_34" data-name="Path 34" d="M34.583,32a10.215,10.215,0,0,0,.367,2.583H23.883A10.215,10.215,0,0,0,24.25,32ZM25.542,21.667h7.75a6.422,6.422,0,0,1,5.025,2.452,10.313,10.313,0,0,1,2.167-1.413,9,9,0,0,0-7.192-3.622h-7.75a9,9,0,0,0-7.192,3.622,10.313,10.313,0,0,1,2.17,1.413,6.422,6.422,0,0,1,5.022-2.452ZM21.667,8.75a7.75,7.75,0,1,1,7.75,7.75,7.75,7.75,0,0,1-7.75-7.75Zm2.583,0a5.167,5.167,0,1,0,5.167-5.167A5.167,5.167,0,0,0,24.25,8.75ZM10.042,42.333h7.75a9.052,9.052,0,0,1,9.042,9.042v6.458H1V51.375a9.052,9.052,0,0,1,9.042-9.042Zm0,2.583a6.466,6.466,0,0,0-6.458,6.458V55.25H24.25V51.375a6.466,6.466,0,0,0-6.458-6.458Zm3.875-5.167A7.75,7.75,0,1,1,21.667,32,7.75,7.75,0,0,1,13.917,39.75Zm0-2.583A5.167,5.167,0,1,0,8.75,32a5.167,5.167,0,0,0,5.167,5.167ZM57.833,51.375v6.458H32V51.375a9.052,9.052,0,0,1,9.042-9.042h7.75A9.052,9.052,0,0,1,57.833,51.375Zm-2.583,0a6.466,6.466,0,0,0-6.458-6.458h-7.75a6.466,6.466,0,0,0-6.458,6.458V55.25H55.25ZM52.667,32a7.75,7.75,0,1,1-7.75-7.75A7.75,7.75,0,0,1,52.667,32Zm-2.583,0a5.167,5.167,0,1,0-5.167,5.167A5.167,5.167,0,0,0,50.083,32Z" transform="translate(1.583 1.583)"/>
  <path id="Path_35" data-name="Path 35" d="M0,0H62V62H0Z" fill="none"/>
</svg>
