<svg xmlns="http://www.w3.org/2000/svg" width="19" height="19" viewBox="0 0 19 19">
  <path id="like-svgrepo-com" d="M15.9,4.5A2.688,2.688,0,0,0,13.26,2c-.806,0-.869.612-.993,1.82-.055.53-.121,1.174-.267,1.93-.386,2-1.72,4.56-3,5.325V17c0,2.25.746,3,4,3h3.773a2.756,2.756,0,0,0,2.9-1.964L19.685,18a2.4,2.4,0,0,1,.638-.82A4.337,4.337,0,0,0,21.25,16a2.945,2.945,0,0,0,.233-1.67,2.718,2.718,0,0,1,.017-.83,4.409,4.409,0,0,1,.225-.671A3.076,3.076,0,0,0,22,11.5,2.189,2.189,0,0,0,19.685,9H15.5S15.9,6,15.9,4.5ZM5.5,10A1.5,1.5,0,0,0,4,11.5v7a1.5,1.5,0,0,0,3,0v-7A1.5,1.5,0,0,0,5.5,10Z" transform="translate(-3.5 -1.5)" fill="none" stroke="#5e5e5e" stroke-width="1" fill-rule="evenodd"/>
</svg>
