<svg xmlns="http://www.w3.org/2000/svg" width="10" height="10" viewBox="0 0 10 10">
  <path id="like-svgrepo-com" d="M10.611,3.389A1.493,1.493,0,0,0,9.144,2c-.448,0-.483.34-.552,1.011-.031.294-.067.652-.148,1.072A5.116,5.116,0,0,1,6.78,7.042v3.292C6.778,11.583,7.194,12,9,12h2.1a1.531,1.531,0,0,0,1.611-1.091l.007-.02a1.333,1.333,0,0,1,.354-.456,2.409,2.409,0,0,0,.515-.656,1.636,1.636,0,0,0,.129-.928,1.51,1.51,0,0,1,.009-.461,2.449,2.449,0,0,1,.125-.373A1.709,1.709,0,0,0,14,7.278,1.216,1.216,0,0,0,12.714,5.89H10.389S10.611,4.222,10.611,3.389ZM4.833,6.444A.833.833,0,0,0,4,7.278v3.889a.833.833,0,0,0,1.667,0V7.278A.833.833,0,0,0,4.833,6.444Z" transform="translate(-4 -2)" fill="#fff" fill-rule="evenodd"/>
</svg>
