<svg xmlns="http://www.w3.org/2000/svg" width="19" height="19" viewBox="0 0 19 19">
  <g id="Message" transform="translate(-1 -1)">
    <path id="Path_15" data-name="Path 15" d="M15.567,1H5.433A4.406,4.406,0,0,0,1,5.433v6.333a4.431,4.431,0,0,0,3.8,4.37v3.23a.665.665,0,0,0,.317.57A.571.571,0,0,0,5.433,20a.9.9,0,0,0,.38-.127l4.75-3.547.19-.127h4.813A4.406,4.406,0,0,0,20,11.767V5.433A4.406,4.406,0,0,0,15.567,1Z" fill="#ffc10a"/>
    <path id="Path_16" data-name="Path 16" d="M12.763,7V8.267H7.633A.681.681,0,0,1,7,7.633.681.681,0,0,1,7.633,7Z" transform="translate(-2.2 -2.2)" fill="#34b0c0"/>
    <path id="Path_17" data-name="Path 17" d="M12.763,13v1.267H7.633a.633.633,0,1,1,0-1.267Z" transform="translate(-2.2 -4.4)" fill="#34b0c0"/>
    <g id="Group_98" data-name="Group 98" transform="translate(4.8 4.8)">
      <path id="Path_18" data-name="Path 18" d="M7.633,8.267H17.767a.681.681,0,0,0,.633-.633A.681.681,0,0,0,17.767,7H7.633A.681.681,0,0,0,7,7.633.681.681,0,0,0,7.633,8.267Z" transform="translate(-7 -7)" fill="#3f51b5"/>
      <path id="Path_19" data-name="Path 19" d="M17.767,13H7.633a.633.633,0,1,0,0,1.267H17.767a.633.633,0,0,0,0-1.267Z" transform="translate(-7 -9.2)" fill="#3f51b5"/>
    </g>
  </g>
</svg>
