<svg xmlns="http://www.w3.org/2000/svg" width="42.7" height="42.7" viewBox="0 0 42.7 42.7">
  <g id="play-circle-svgrepo-com_1_" data-name="play-circle-svgrepo-com (1)" transform="translate(-1.25 -1.25)">
    <path id="Path_10" data-name="Path 10" d="M13.86,7.77a3.757,3.757,0,0,0-5.61,3.386V22.226a3.757,3.757,0,0,0,5.61,3.386l9.375-5.535a3.97,3.97,0,0,0,0-6.772Zm-2.631,3.386a.927.927,0,0,1,.416-.811.641.641,0,0,1,.7-.01l9.375,5.535a.995.995,0,0,1,0,1.641l-9.375,5.535a.641.641,0,0,1-.7-.01.927.927,0,0,1-.416-.811Z" transform="translate(6.902 5.909)" fill="#fff" fill-rule="evenodd"/>
    <path id="Path_11" data-name="Path 11" d="M22.6,1.25A21.35,21.35,0,1,0,43.95,22.6,21.35,21.35,0,0,0,22.6,1.25ZM4.229,22.6A18.371,18.371,0,1,1,22.6,40.971,18.371,18.371,0,0,1,4.229,22.6Z" fill="#fff" fill-rule="evenodd"/>
  </g>
</svg>
