<svg xmlns="http://www.w3.org/2000/svg" width="30.555" height="20" viewBox="0 0 30.555 20">
  <g id="sedan-car-front-svgrepo-com" transform="translate(0 -8.463)">
    <path id="Path_20" data-name="Path 20" d="M28.662,14.848a.912.912,0,0,0-.062-.07l-1.071-1.033c.888-.2,1.844-.945,1.844-1.709,0-.889-1.234-1.2-2.287-1.2-1.1,0-1.229.755-1.242,1.288L23.081,9.456a3.9,3.9,0,0,0-2.422-.993H9.9a3.9,3.9,0,0,0-2.421.993L4.713,12.119c-.014-.533-.142-1.288-1.242-1.288-1.055,0-2.288.316-2.288,1.2,0,.763.957,1.507,1.845,1.709L1.956,14.778c-.024.023-.041.046-.062.07A6,6,0,0,0,0,18.961v3.916a3.572,3.572,0,0,0,.98,2.456v1.519a1.638,1.638,0,0,0,1.658,1.612h2A1.636,1.636,0,0,0,6.3,26.851v-.389H24.256v.389a1.636,1.636,0,0,0,1.658,1.612h2a1.637,1.637,0,0,0,1.657-1.612V25.332a3.569,3.569,0,0,0,.98-2.456V18.961A5.991,5.991,0,0,0,28.662,14.848ZM8.489,10.639A2.762,2.762,0,0,1,9.9,10.07H20.66a2.762,2.762,0,0,1,1.406.569l3.623,3.511H4.867ZM1.243,18.369a1.717,1.717,0,0,1,1.686-1.747c.931,0,3.974,1.786,3.974,2.75s-3.043.741-3.974.741A1.715,1.715,0,0,1,1.243,18.369ZM6.3,24.746H5.657l-1.905,0a3.622,3.622,0,0,1-1.166-.563,1.653,1.653,0,0,1-.316-.321,1.254,1.254,0,0,1-.177-.324,1.473,1.473,0,0,1,.253-1.285H5.6l2.168,2.488Zm13.653,0H10.6a1.767,1.767,0,0,1-1.766-1.765H21.719A1.766,1.766,0,0,1,19.953,24.747Zm.41-2.97H10.192c-1.06,0-1.921-1.307-1.921-2.919H22.284C22.284,20.47,21.424,21.777,20.364,21.777Zm8.1,1.766a1.263,1.263,0,0,1-.178.323,1.618,1.618,0,0,1-.316.321,3.59,3.59,0,0,1-1.166.563l-1.905,0h-2.11l2.169-2.488h3.251A1.47,1.47,0,0,1,28.462,23.543Zm-.836-3.43c-.93,0-3.973.222-3.973-.741s3.043-2.75,3.973-2.75a1.747,1.747,0,0,1,0,3.491Z" transform="translate(0 0)" fill="#fff"/>
  </g>
</svg>
