<svg xmlns="http://www.w3.org/2000/svg" width="20.75" height="22" viewBox="0 0 20.75 22">
  <g id="gear-setting-settings-svgrepo-com" transform="translate(-2.85 -2)">
    <circle id="XMLID_224_" cx="4" cy="4" r="4" transform="translate(9.225 9)" fill="none" stroke="#fff" stroke-linecap="round" stroke-linejoin="round" stroke-width="2"/>
    <path id="XMLID_242_" d="M22.269,8.666,21.5,7.334a1.538,1.538,0,0,0-2.1-.563l-.4.234a2.308,2.308,0,0,1-3.462-2V4.538A1.538,1.538,0,0,0,13.994,3H12.455a1.538,1.538,0,0,0-1.538,1.538v.468A2.308,2.308,0,0,1,7.455,7l-.4-.234a1.538,1.538,0,0,0-2.1.563L4.18,8.666a1.538,1.538,0,0,0,.563,2.1l.4.234a2.308,2.308,0,0,1,0,4l-.4.234a1.538,1.538,0,0,0-.563,2.1l.769,1.332a1.538,1.538,0,0,0,2.1.563l.4-.234a2.308,2.308,0,0,1,3.462,2v.468A1.538,1.538,0,0,0,12.455,23h1.538a1.538,1.538,0,0,0,1.538-1.538v-.468a2.308,2.308,0,0,1,3.462-2l.4.234a1.538,1.538,0,0,0,2.1-.563l.769-1.332a1.538,1.538,0,0,0-.563-2.1L21.3,15a2.308,2.308,0,0,1,0-4l.4-.234A1.538,1.538,0,0,0,22.269,8.666Z" fill="none" stroke="#fff" stroke-linecap="round" stroke-linejoin="round" stroke-width="2"/>
  </g>
</svg>
