<svg xmlns="http://www.w3.org/2000/svg" width="13" height="12.539" viewBox="0 0 13 12.539">
  <g id="user-clock-svgrepo-com" transform="translate(-2.25 -3.25)">
    <path id="Path_27" data-name="Path 27" d="M8.547,3.25a2.8,2.8,0,1,0,2.8,2.8A2.8,2.8,0,0,0,8.547,3.25Zm-1.81,2.8a1.81,1.81,0,1,1,1.81,1.81A1.81,1.81,0,0,1,6.737,6.047Z" transform="translate(-1.196)" fill="#9e9e9e" fill-rule="evenodd"/>
    <path id="Path_28" data-name="Path 28" d="M3.237,15.718a1.481,1.481,0,0,1,1.481-1.481h.224a.166.166,0,0,1,.051.008l.57.186a5.758,5.758,0,0,0,1.372.269.2.2,0,0,0,.205-.157,4.571,4.571,0,0,1,.193-.627.141.141,0,0,0-.126-.191,4.773,4.773,0,0,1-1.338-.234l-.57-.186a1.153,1.153,0,0,0-.358-.057H4.718A2.468,2.468,0,0,0,2.25,15.718V16.5a1.012,1.012,0,0,0,.849,1,26.388,26.388,0,0,0,4.29.345.136.136,0,0,0,.118-.2,4.58,4.58,0,0,1-.249-.6A.275.275,0,0,0,7,16.854a25.41,25.41,0,0,1-3.744-.33.024.024,0,0,1-.02-.024Z" transform="translate(0 -3.418)" fill="#9e9e9e"/>
    <path id="Path_29" data-name="Path 29" d="M16.737,15.044a.494.494,0,1,0-.987,0v1.167a.494.494,0,0,0,.2.4l.658.479a.494.494,0,1,0,.581-.8l-.455-.331Z" transform="translate(-4.614 -3.862)" fill="#9e9e9e"/>
    <path id="Path_30" data-name="Path 30" d="M14.62,18.541A3.62,3.62,0,1,0,11,14.92,3.62,3.62,0,0,0,14.62,18.541Zm0-.987a2.633,2.633,0,1,0-2.633-2.633A2.633,2.633,0,0,0,14.62,17.553Z" transform="translate(-2.991 -2.751)" fill="#9e9e9e" fill-rule="evenodd"/>
  </g>
</svg>
