<svg xmlns="http://www.w3.org/2000/svg" width="24.8" height="21.08" viewBox="0 0 24.8 21.08">
  <g id="camera-svgrepo-com" transform="translate(-16 -28)">
    <path id="Path_6" data-name="Path 6" d="M22.82,31.41v.93a.93.93,0,0,0,.744-.372Zm1.86-2.48V28a.93.93,0,0,0-.744.372Zm9.3,2.48-.744.558a.93.93,0,0,0,.744.372Zm-1.86-2.48.744-.558A.93.93,0,0,0,32.12,28Zm6.82,4.96V45.67H40.8V33.89ZM37.39,47.22H19.41v1.86H37.39ZM17.86,45.67V33.89H16V45.67Zm1.55-13.33h3.41V30.48H19.41Zm4.154-.372,1.86-2.48-1.488-1.116-1.86,2.48Zm10.416.372h3.41V30.48H33.98Zm.744-1.488-1.86-2.48-1.488,1.116,1.86,2.48ZM32.12,28H24.68v1.86h7.44ZM19.41,47.22a1.55,1.55,0,0,1-1.55-1.55H16a3.41,3.41,0,0,0,3.41,3.41Zm19.53-1.55a1.55,1.55,0,0,1-1.55,1.55v1.86a3.41,3.41,0,0,0,3.41-3.41ZM40.8,33.89a3.41,3.41,0,0,0-3.41-3.41v1.86a1.55,1.55,0,0,1,1.55,1.55Zm-22.94,0a1.55,1.55,0,0,1,1.55-1.55V30.48A3.41,3.41,0,0,0,16,33.89Z" fill="#646464"/>
    <circle id="Ellipse_34" data-name="Ellipse 34" cx="4.5" cy="4.5" r="4.5" transform="translate(24 35)" fill="none" stroke="#646464" stroke-width="2"/>
  </g>
</svg>
