<svg xmlns="http://www.w3.org/2000/svg" width="16" height="16" viewBox="0 0 16 16">
  <g id="instagram-svgrepo-com" transform="translate(-1 -1)">
    <path id="Path_7" data-name="Path 7" d="M10,14a4,4,0,1,0-4-4A4,4,0,0,0,10,14Zm0-1.333A2.667,2.667,0,1,0,7.333,10,2.667,2.667,0,0,0,10,12.667Z" transform="translate(-1 -1)" fill="#0f0f0f" fill-rule="evenodd"/>
    <path id="Path_8" data-name="Path 8" d="M18,5a1,1,0,1,0,1,1A1,1,0,0,0,18,5Z" transform="translate(-4.8 -1.2)" fill="#0f0f0f"/>
    <path id="Path_9" data-name="Path 9" d="M1.476,3.383C1,4.316,1,5.538,1,7.982v2.036c0,2.444,0,3.666.476,4.6a4.363,4.363,0,0,0,1.907,1.907C4.316,17,5.538,17,7.982,17h2.036c2.444,0,3.666,0,4.6-.476a4.363,4.363,0,0,0,1.907-1.907c.476-.933.476-2.155.476-4.6V7.982c0-2.444,0-3.666-.476-4.6a4.363,4.363,0,0,0-1.907-1.907C13.684,1,12.462,1,10.018,1H7.982c-2.444,0-3.666,0-4.6.476A4.364,4.364,0,0,0,1.476,3.383Zm8.543-.928H7.982c-1.246,0-2.093,0-2.748.055a3.139,3.139,0,0,0-1.191.262A2.909,2.909,0,0,0,2.772,4.043a3.139,3.139,0,0,0-.262,1.191c-.053.655-.055,1.5-.055,2.748v2.036c0,1.246,0,2.093.055,2.748a3.14,3.14,0,0,0,.262,1.191,2.909,2.909,0,0,0,1.271,1.271,3.139,3.139,0,0,0,1.191.262c.655.053,1.5.055,2.748.055h2.036c1.246,0,2.093,0,2.748-.055a3.139,3.139,0,0,0,1.191-.262,2.909,2.909,0,0,0,1.271-1.271,3.139,3.139,0,0,0,.262-1.191c.053-.655.055-1.5.055-2.748V7.982c0-1.246,0-2.093-.055-2.748a3.139,3.139,0,0,0-.262-1.191,2.909,2.909,0,0,0-1.271-1.271,3.14,3.14,0,0,0-1.191-.262C12.111,2.456,11.264,2.455,10.018,2.455Z" fill="#0f0f0f" fill-rule="evenodd"/>
  </g>
</svg>
