<svg xmlns="http://www.w3.org/2000/svg" width="18" height="13.5" viewBox="0 0 18 13.5">
  <g id="youtube-svgrepo-com" transform="translate(0 -3)">
    <path id="Path_10" data-name="Path 10" d="M9.122,7.1A.75.75,0,0,0,8,7.75v6a.75.75,0,0,0,1.122.651l5.25-3a.75.75,0,0,0,0-1.3Zm3.366,3.651L9.5,12.458V9.042Z" transform="translate(-2 -1)" fill="#0f0f0f" fill-rule="evenodd"/>
    <path id="Path_11" data-name="Path 11" d="M0,9.75c0-2.812,0-4.218.716-5.2a3.75,3.75,0,0,1,.83-.83C2.532,3,3.938,3,6.75,3h4.5c2.812,0,4.218,0,5.2.716a3.75,3.75,0,0,1,.83.83C18,5.532,18,6.938,18,9.75s0,4.218-.716,5.2a3.75,3.75,0,0,1-.83.83c-.986.716-2.392.716-5.2.716H6.75c-2.812,0-4.218,0-5.2-.716a3.75,3.75,0,0,1-.83-.83C0,13.968,0,12.562,0,9.75ZM6.75,4.5h4.5c1.44,0,2.4,0,3.125.081a2.385,2.385,0,0,1,1.2.349,2.252,2.252,0,0,1,.5.5,2.386,2.386,0,0,1,.349,1.2c.079.727.081,1.686.081,3.125s0,2.4-.081,3.125a2.386,2.386,0,0,1-.349,1.2,2.255,2.255,0,0,1-.5.5,2.386,2.386,0,0,1-1.2.349C13.649,15,12.69,15,11.25,15H6.75c-1.44,0-2.4,0-3.125-.081a2.386,2.386,0,0,1-1.2-.349,2.252,2.252,0,0,1-.5-.5,2.385,2.385,0,0,1-.349-1.2C1.5,12.149,1.5,11.19,1.5,9.75s0-2.4.081-3.125a2.385,2.385,0,0,1,.349-1.2,2.25,2.25,0,0,1,.5-.5,2.385,2.385,0,0,1,1.2-.349C4.351,4.5,5.31,4.5,6.75,4.5Z" fill="#0f0f0f" fill-rule="evenodd"/>
  </g>
</svg>
